<svg width="25" height="25" viewBox="0 0 25 25" fill="none" xmlns="http://www.w3.org/2000/svg">
<path d="M11.25 24.375V18.7547L6.87498 23.0673L5.5577 21.75L11.25 16.0577V13.125H8.31728L2.62498 18.8173L1.3077 17.5L5.62022 13.125H0V11.25H5.62022L1.3077 6.87498L2.62498 5.5577L8.31728 11.25H11.25V8.31728L5.5577 2.62498L6.87498 1.3077L11.25 5.62022V0H13.125V5.62022L17.5 1.3077L18.8173 2.62498L13.125 8.31728V11.25H16.0577L21.75 5.5577L23.0673 6.87498L18.7547 11.25H24.375V13.125H18.7547L23.0673 17.5L21.75 18.8173L16.0577 13.125H13.125V16.0577L18.8173 21.75L17.5 23.0673L13.125 18.7547V24.375H11.25Z" fill="#884C30"/>
</svg>
