<svg width="69" height="12" viewBox="0 0 69 12" fill="none" xmlns="http://www.w3.org/2000/svg">
<path d="M2.23125 11.0833L3.17917 6.98542L0 4.22917L4.2 3.86458L5.83333 0L7.46667 3.86458L11.6667 4.22917L8.4875 6.98542L9.43542 11.0833L5.83333 8.91042L2.23125 11.0833Z" fill="#884C30"/>
<path d="M13.8979 11.0833L14.8458 6.98542L11.6667 4.22917L15.8667 3.86458L17.5 0L19.1333 3.86458L23.3333 4.22917L20.1542 6.98542L21.1021 11.0833L17.5 8.91042L13.8979 11.0833Z" fill="#884C30"/>
<path d="M25.5646 11.0833L26.5125 6.98542L23.3333 4.22917L27.5333 3.86458L29.1667 0L30.8 3.86458L35 4.22917L31.8208 6.98542L32.7687 11.0833L29.1667 8.91042L25.5646 11.0833Z" fill="#884C30"/>
<path d="M37.2313 11.0833L38.1792 6.98542L35 4.22917L39.2 3.86458L40.8333 0L42.4667 3.86458L46.6667 4.22917L43.4875 6.98542L44.4354 11.0833L40.8333 8.91042L37.2313 11.0833Z" fill="#884C30"/>
<path d="M50.6625 8.64792L52.5 7.53958L54.3375 8.6625L53.8563 6.5625L55.475 5.1625L53.3458 4.97292L52.5 2.98958L51.6542 4.95833L49.525 5.14792L51.1438 6.5625L50.6625 8.64792ZM48.8979 11.0833L49.8458 6.98542L46.6667 4.22917L50.8667 3.86458L52.5 0L54.1333 3.86458L58.3333 4.22917L55.1542 6.98542L56.1021 11.0833L52.5 8.91042L48.8979 11.0833Z" fill="#884C30"/>
</svg>
